<svg width="240" height="34" viewBox="0 0 240 34" fill="none" xmlns="http://www.w3.org/2000/svg">
<path d="M173.144 27.9556C172.983 27.9556 172.846 27.9072 172.734 27.8105C172.637 27.6977 172.589 27.5606 172.589 27.3995V13.1829H167.952C167.791 13.1829 167.654 13.1346 167.541 13.0379C167.445 12.9251 167.396 12.788 167.396 12.6268V11.6114C167.396 11.4341 167.445 11.2971 167.541 11.2004C167.654 11.0876 167.791 11.0311 167.952 11.0311H179.592C179.77 11.0311 179.906 11.0876 180.003 11.2004C180.115 11.2971 180.172 11.4341 180.172 11.6114V12.6268C180.172 12.788 180.115 12.9251 180.003 13.0379C179.906 13.1346 179.77 13.1829 179.592 13.1829H174.98V27.3995C174.98 27.5606 174.923 27.6977 174.811 27.8105C174.714 27.9072 174.577 27.9556 174.4 27.9556H173.144ZM180.193 27.9556C180.065 27.9556 179.952 27.9072 179.855 27.8105C179.759 27.7138 179.71 27.601 179.71 27.472C179.71 27.3914 179.718 27.3028 179.734 27.206L185.724 11.563C185.789 11.4019 185.877 11.2729 185.989 11.1762C186.103 11.0795 186.272 11.0311 186.497 11.0311H188.139C188.349 11.0311 188.509 11.0795 188.622 11.1762C188.751 11.2729 188.848 11.4019 188.912 11.563L194.877 27.206C194.909 27.3028 194.925 27.3914 194.925 27.472C194.925 27.601 194.877 27.7138 194.78 27.8105C194.684 27.9072 194.571 27.9556 194.442 27.9556H193.211C193.017 27.9556 192.872 27.9072 192.776 27.8105C192.696 27.7138 192.639 27.6252 192.607 27.5445L191.279 24.1113H183.357L182.029 27.5445C182.013 27.6252 181.956 27.7138 181.86 27.8105C181.763 27.9072 181.618 27.9556 181.425 27.9556H180.193ZM184.057 22.032H190.578L187.318 13.4489L184.057 22.032ZM195.783 15.4556C195.655 15.4556 195.55 15.4073 195.469 15.3106C195.405 15.2139 195.381 15.093 195.397 14.9479L195.952 11.4905C195.985 11.2971 196.049 11.1359 196.146 11.0069C196.259 10.8619 196.42 10.7893 196.629 10.7893H198.247C198.36 10.7893 198.448 10.8377 198.512 10.9344C198.593 11.015 198.633 11.1036 198.633 11.2004C198.633 11.3293 198.602 11.4582 198.537 11.5872L197.281 14.8996C197.217 15.0607 197.128 15.1978 197.015 15.3106C196.919 15.4073 196.766 15.4556 196.556 15.4556H195.783ZM202.414 27.9556C202.237 27.9556 202.1 27.9072 202.004 27.8105C201.907 27.6977 201.859 27.5606 201.859 27.3995V11.5872C201.859 11.426 201.907 11.2971 202.004 11.2004C202.1 11.0876 202.237 11.0311 202.414 11.0311H203.694C203.855 11.0311 203.984 11.0876 204.081 11.2004C204.177 11.2971 204.226 11.426 204.226 11.5872V25.8521H212.268C212.445 25.8521 212.582 25.9085 212.679 26.0213C212.775 26.118 212.823 26.255 212.823 26.4324V27.3995C212.823 27.5606 212.775 27.6977 212.679 27.8105C212.582 27.9072 212.445 27.9556 212.268 27.9556H202.414ZM216.264 27.9556C216.087 27.9556 215.95 27.9072 215.854 27.8105C215.757 27.6977 215.709 27.5606 215.709 27.3995V11.5872C215.709 11.426 215.757 11.2971 215.854 11.2004C215.95 11.0876 216.087 11.0311 216.264 11.0311H217.544C217.705 11.0311 217.834 11.0876 217.931 11.2004C218.043 11.2971 218.1 11.426 218.1 11.5872V27.3995C218.1 27.5606 218.043 27.6977 217.931 27.8105C217.834 27.9072 217.705 27.9556 217.544 27.9556H216.264ZM223.109 27.9556C222.949 27.9556 222.811 27.9072 222.699 27.8105C222.602 27.6977 222.554 27.5606 222.554 27.3995V11.6114C222.554 11.4341 222.602 11.2971 222.699 11.2004C222.811 11.0876 222.949 11.0311 223.109 11.0311H224.317C224.51 11.0311 224.655 11.0795 224.752 11.1762C224.848 11.2729 224.905 11.3535 224.921 11.418L230.041 21.1858L235.185 11.418C235.217 11.3535 235.273 11.2729 235.354 11.1762C235.451 11.0795 235.595 11.0311 235.789 11.0311H236.972C237.149 11.0311 237.286 11.0876 237.383 11.2004C237.495 11.2971 237.552 11.4341 237.552 11.6114V27.3995C237.552 27.5606 237.495 27.6977 237.383 27.8105C237.286 27.9072 237.149 27.9556 236.972 27.9556H235.789C235.628 27.9556 235.491 27.9072 235.378 27.8105C235.282 27.6977 235.233 27.5606 235.233 27.3995V15.504L231.2 23.386C231.136 23.5471 231.039 23.6761 230.91 23.7728C230.781 23.8534 230.62 23.8937 230.427 23.8937H229.679C229.469 23.8937 229.3 23.8534 229.171 23.7728C229.059 23.6761 228.962 23.5471 228.882 23.386L224.848 15.504V27.3995C224.848 27.5606 224.792 27.6977 224.679 27.8105C224.583 27.9072 224.454 27.9556 224.293 27.9556H223.109Z" fill="#FFFF00"/>
<path d="M146 31.2044C146.44 31.9774 146.783 32.1517 147.736 32.0356L146.038 33.6978L146 31.2044Z" fill="#FFFF00"/>
<path d="M146.491 28.1822L151.811 16.6222L152.641 18.1333L147.698 28.8622C146.981 29.1644 146.604 28.9 146.491 28.1822Z" fill="#FFFF00"/>
<path d="M148.453 28.8622L153.057 18.8889L153.915 20.4208L149.66 29.5422C148.943 29.8444 148.566 29.58 148.453 28.8622Z" fill="#FFFF00"/>
<path d="M148.443 28.8831L153.057 18.8889L153.915 20.4208L149.651 29.5631C148.934 29.8653 148.556 29.6008 148.443 28.8831Z" fill="#FFFF00"/>
<path d="M131.396 22.1756L142.566 0L151.283 15.6778L145.698 28.2956L145.925 34H161.472L154.377 21.2311L150.302 30.0333L145.925 34H139.057H125.283L128.151 28.4844H138.83L144.906 15.4889L142.642 11.6356L136.792 22.1756H131.396Z" fill="#FFFF00"/>
<path d="M0.966051 27.9556C0.837244 27.9556 0.724542 27.9072 0.627938 27.8105C0.531334 27.7138 0.483032 27.601 0.483032 27.472C0.483032 27.3914 0.491083 27.3028 0.507183 27.206L6.49662 11.563C6.56102 11.4019 6.64958 11.2729 6.76228 11.1762C6.87498 11.0795 7.04404 11.0311 7.26945 11.0311H8.91171C9.12099 11.0311 9.28205 11.0795 9.39473 11.1762C9.52356 11.2729 9.62016 11.4019 9.68454 11.563L15.6498 27.206C15.6821 27.3028 15.6981 27.3914 15.6981 27.472C15.6981 27.601 15.6498 27.7138 15.5532 27.8105C15.4566 27.9072 15.3439 27.9556 15.2151 27.9556H13.9834C13.7902 27.9556 13.6453 27.9072 13.5487 27.8105C13.4682 27.7138 13.4119 27.6252 13.3796 27.5445L12.0513 24.1113H4.12982L2.80152 27.5445C2.78542 27.6252 2.72907 27.7138 2.63247 27.8105C2.53586 27.9072 2.39096 27.9556 2.19775 27.9556H0.966051ZM4.8302 22.032H11.351L8.09058 13.4489L4.8302 22.032ZM19.0774 27.9556C18.9002 27.9556 18.7634 27.9072 18.6668 27.8105C18.5702 27.6977 18.5219 27.5606 18.5219 27.3995V11.5872C18.5219 11.426 18.5702 11.2971 18.6668 11.2004C18.7634 11.0876 18.9002 11.0311 19.0774 11.0311H20.3574C20.5184 11.0311 20.6472 11.0876 20.7438 11.2004C20.8404 11.2971 20.8887 11.426 20.8887 11.5872V25.8521H28.931C29.1081 25.8521 29.2449 25.9085 29.3415 26.0213C29.4381 26.118 29.4864 26.255 29.4864 26.4324V27.3995C29.4864 27.5606 29.4381 27.6977 29.3415 27.8105C29.2449 27.9072 29.1081 27.9556 28.931 27.9556H19.0774ZM38.2704 28.1973C36.8535 28.1973 35.646 27.9314 34.6477 27.3995C33.6656 26.8676 32.9088 26.118 32.3775 25.1509C31.8624 24.1838 31.5725 23.0475 31.5081 21.7419C31.492 21.0326 31.4839 20.2831 31.4839 19.4933C31.4839 18.6874 31.492 17.9218 31.5081 17.1964C31.5725 15.8908 31.8624 14.7626 32.3775 13.8116C32.9088 12.8605 33.6737 12.1191 34.6719 11.5872C35.6701 11.0553 36.8696 10.7893 38.2704 10.7893C39.4135 10.7893 40.4037 10.9505 41.2409 11.2729C42.0782 11.5953 42.7625 12.0063 43.2938 12.506C43.8412 12.9895 44.2437 13.4972 44.5014 14.0292C44.775 14.5611 44.9199 15.0285 44.9361 15.4315C44.9522 15.5765 44.9119 15.6974 44.8153 15.7941C44.7187 15.8748 44.5899 15.915 44.4288 15.915H43.0039C42.843 15.915 42.7222 15.8828 42.6417 15.8183C42.5773 15.7539 42.5129 15.641 42.4485 15.4798C42.3036 15.0607 42.0621 14.6497 41.724 14.2468C41.402 13.8438 40.9592 13.5133 40.3957 13.2555C39.8482 12.9814 39.1398 12.8444 38.2704 12.8444C36.9984 12.8444 35.968 13.191 35.179 13.8841C34.4062 14.5772 33.9876 15.7216 33.9232 17.3173C33.8749 18.7519 33.8749 20.1864 33.9232 21.621C33.9876 23.2328 34.4143 24.3933 35.2032 25.1026C35.9922 25.7957 37.0226 26.1422 38.2945 26.1422C39.1479 26.1422 39.9046 25.9891 40.5648 25.6828C41.2409 25.3605 41.7723 24.8689 42.1587 24.208C42.5451 23.5471 42.7384 22.709 42.7384 21.6935V20.678H39.1156C38.9547 20.678 38.8178 20.6297 38.7051 20.533C38.6085 20.4202 38.5602 20.2751 38.5602 20.0978V19.3241C38.5602 19.1468 38.6085 19.0098 38.7051 18.9131C38.8178 18.8003 38.9547 18.7438 39.1156 18.7438H44.5738C44.7509 18.7438 44.8878 18.8003 44.9843 18.9131C45.0809 19.0098 45.1292 19.1468 45.1292 19.3241V21.6452C45.1292 22.9669 44.8556 24.1194 44.3082 25.1026C43.7768 26.0858 42.9959 26.8515 41.9654 27.3995C40.935 27.9314 39.7033 28.1973 38.2704 28.1973ZM54.8781 28.1973C53.5096 28.1973 52.3342 27.9636 51.3521 27.4962C50.37 27.0126 49.6132 26.2792 49.0819 25.296C48.5506 24.2966 48.2527 23.0475 48.1883 21.5484C48.1722 20.8392 48.1642 20.1622 48.1642 19.5175C48.1642 18.8566 48.1722 18.1716 48.1883 17.4624C48.2527 15.9795 48.5587 14.7464 49.1061 13.7632C49.6696 12.7638 50.4424 12.0224 51.4245 11.5388C52.4228 11.0392 53.574 10.7893 54.8781 10.7893C56.1984 10.7893 57.3496 11.0392 58.3317 11.5388C59.33 12.0224 60.1108 12.7638 60.6744 13.7632C61.2379 14.7464 61.5438 15.9795 61.5921 17.4624C61.6243 18.1716 61.6404 18.8566 61.6404 19.5175C61.6404 20.1622 61.6243 20.8392 61.5921 21.5484C61.5438 23.0475 61.2459 24.2966 60.6985 25.296C60.1672 26.2792 59.4104 27.0126 58.4283 27.4962C57.4462 27.9636 56.2628 28.1973 54.8781 28.1973ZM54.8781 26.1422C56.1179 26.1422 57.1242 25.7715 57.897 25.03C58.6859 24.2886 59.1126 23.0877 59.177 21.4276C59.2092 20.7022 59.2253 20.0575 59.2253 19.4933C59.2253 18.9131 59.2092 18.2684 59.177 17.5591C59.1448 16.4469 58.9355 15.5443 58.5491 14.8512C58.1787 14.1581 57.6796 13.6504 57.0517 13.328C56.4238 13.0056 55.6993 12.8444 54.8781 12.8444C54.0892 12.8444 53.3808 13.0056 52.7528 13.328C52.1249 13.6504 51.6178 14.1581 51.2313 14.8512C50.861 15.5443 50.6517 16.4469 50.6034 17.5591C50.5873 18.2684 50.5793 18.9131 50.5793 19.4933C50.5793 20.0575 50.5873 20.7022 50.6034 21.4276C50.6678 23.0877 51.0945 24.2886 51.8834 25.03C52.6723 25.7715 53.6706 26.1422 54.8781 26.1422ZM65.9575 27.9556C65.7805 27.9556 65.6436 27.9072 65.547 27.8105C65.4504 27.6977 65.4021 27.5606 65.4021 27.3995V11.6114C65.4021 11.4341 65.4504 11.2971 65.547 11.2004C65.6436 11.0876 65.7805 11.0311 65.9575 11.0311H71.8503C73.6697 11.0311 75.1107 11.4582 76.1736 12.3125C77.2362 13.1668 77.7676 14.4321 77.7676 16.1084C77.7676 17.3496 77.4536 18.3651 76.8257 19.1548C76.2136 19.9285 75.3764 20.4685 74.3138 20.7748L78.0332 27.206C78.0815 27.3028 78.1057 27.3914 78.1057 27.472C78.1057 27.601 78.0491 27.7138 77.9366 27.8105C77.84 27.9072 77.7268 27.9556 77.5985 27.9556H76.4393C76.1653 27.9556 75.9638 27.883 75.8355 27.738C75.7064 27.5929 75.594 27.4478 75.4974 27.3028L71.9953 21.1616H67.7688V27.3995C67.7688 27.5606 67.7125 27.6977 67.5998 27.8105C67.5032 27.9072 67.3664 27.9556 67.1892 27.9556H65.9575ZM67.7688 19.1065H71.7538C72.9613 19.1065 73.863 18.8566 74.4587 18.357C75.0544 17.8412 75.3522 17.0836 75.3522 16.0843C75.3522 15.1011 75.0544 14.3516 74.4587 13.8357C73.879 13.3199 72.9774 13.062 71.7538 13.062H67.7688V19.1065ZM82.0242 27.9556C81.8476 27.9556 81.7102 27.9072 81.6136 27.8105C81.517 27.6977 81.4687 27.5606 81.4687 27.3995V11.5872C81.4687 11.426 81.517 11.2971 81.6136 11.2004C81.7102 11.0876 81.8476 11.0311 82.0242 11.0311H83.3042C83.4657 11.0311 83.594 11.0876 83.6906 11.2004C83.8038 11.2971 83.8596 11.426 83.8596 11.5872V27.3995C83.8596 27.5606 83.8038 27.6977 83.6906 27.8105C83.594 27.9072 83.4657 27.9556 83.3042 27.9556H82.0242ZM92.5645 27.9556C92.4038 27.9556 92.2672 27.9072 92.154 27.8105C92.0574 27.6977 92.0091 27.5606 92.0091 27.3995V13.1829H87.3721C87.2113 13.1829 87.0747 13.1346 86.9615 13.0379C86.8649 12.9251 86.8166 12.788 86.8166 12.6268V11.6114C86.8166 11.4341 86.8649 11.2971 86.9615 11.2004C87.0747 11.0876 87.2113 11.0311 87.3721 11.0311H99.0128C99.1902 11.0311 99.3268 11.0876 99.4234 11.2004C99.5366 11.2971 99.5925 11.4341 99.5925 11.6114V12.6268C99.5925 12.788 99.5366 12.9251 99.4234 13.0379C99.3268 13.1346 99.1902 13.1829 99.0128 13.1829H94.4V27.3995C94.4 27.5606 94.3442 27.6977 94.231 27.8105C94.1344 27.9072 93.9977 27.9556 93.8204 27.9556H92.5645ZM103.097 27.9556C102.936 27.9556 102.799 27.9072 102.687 27.8105C102.59 27.6977 102.542 27.5606 102.542 27.3995V11.6114C102.542 11.4341 102.59 11.2971 102.687 11.2004C102.799 11.0876 102.936 11.0311 103.097 11.0311H104.305C104.498 11.0311 104.643 11.0795 104.74 11.1762C104.836 11.2729 104.892 11.3535 104.909 11.418L110.029 21.1858L115.173 11.418C115.205 11.3535 115.261 11.2729 115.342 11.1762C115.439 11.0795 115.583 11.0311 115.777 11.0311H116.96C117.137 11.0311 117.274 11.0876 117.371 11.2004C117.483 11.2971 117.54 11.4341 117.54 11.6114V27.3995C117.54 27.5606 117.483 27.6977 117.371 27.8105C117.274 27.9072 117.137 27.9556 116.96 27.9556H115.777C115.615 27.9556 115.479 27.9072 115.366 27.8105C115.269 27.6977 115.221 27.5606 115.221 27.3995V15.504L111.188 23.386C111.123 23.5471 111.026 23.6761 110.898 23.7728C110.769 23.8534 110.608 23.8937 110.415 23.8937H109.666C109.457 23.8937 109.288 23.8534 109.159 23.7728C109.046 23.6761 108.949 23.5471 108.869 23.386L104.836 15.504V27.3995C104.836 27.5606 104.78 27.6977 104.667 27.8105C104.571 27.9072 104.442 27.9556 104.281 27.9556H103.097Z" fill="#FFFF00"/>
</svg>
